<svg width="336" height="315" viewBox="0 0 336 315" fill="none" xmlns="http://www.w3.org/2000/svg">
<g clip-path="url(#clip0_1192_5)">
<path d="M51.175 56.561C73.1276 56.5325 90.1361 55.3669 109.247 68.7661C144.384 93.4011 149.052 144.114 118.352 174.838C97.7869 195.063 78.7118 194.473 52.4719 194.456L13.6096 194.401C13.0326 148.968 13.6007 102.099 13.6057 56.56L51.175 56.561ZM58.1262 72.9653L30.3293 72.9995L30.3664 178.425L58.0031 178.446C78.2771 178.488 91.7149 178.444 107.202 162.95L107.477 162.674C117.682 152.046 122.693 139.172 122.384 124.396C122.088 110.249 116.175 96.8024 105.949 87.0229C90.825 72.662 77.2305 72.9563 58.1262 72.9653Z" fill="#FAFAFA"/>
<path d="M61.0479 90.0097C65.4732 90.0012 69.8119 89.9592 74.2393 90.1532C106.945 91.5844 121.282 128.416 99.5371 152.464C87.7717 163.752 77.0334 163.343 62.041 163.318C55.0292 163.296 48.0167 163.324 41.0049 163.402L41 90.0419L61.0479 90.0097ZM74.2598 106.055C70.7408 105.816 67.49 105.876 63.9775 105.958L57.6113 105.994L57.6279 147.391C65.6619 147.398 77.4927 148.411 84.2021 144.155C89.4676 139.861 92.3732 135.855 93.2002 128.934C94.6216 117.036 86.2056 106.866 74.2598 106.055Z" fill="#FAFAFA"/>
<path d="M231.895 -0.525513C232.785 0.820487 232.38 56.7465 232.315 63.0675C227.025 57.6705 221.765 52.2425 216.535 46.785C211.335 54.9075 206.675 64.0755 201.715 72.4305C188.3 95.032 175.76 118.638 162.28 141.121C158.82 136.049 152.577 123.338 149.627 117.615L128.25 76.4525C124.99 70.5205 121.001 62.8765 118.216 56.7745L136.817 56.595C139.346 62.476 143.876 70.74 146.886 76.64C152.076 86.816 157.345 97.5255 162.77 107.533L202.085 38.859C194.895 37.3045 187.43 36.094 180.175 34.675L231.895 -0.525513Z" fill="#FAFAFA"/>
<path d="M261.46 56.614C281.01 56.1135 303.3 56.597 322.95 56.645C320.47 61.5345 316.34 68.0185 313.455 72.821L296.115 101.556L239.85 194.439L220.74 194.381L294.1 73.0275L251.18 73.0055C254.35 67.653 258.12 61.918 261.46 56.614Z" fill="#FAFAFA"/>
<path d="M228.855 86.6935C244.45 84.961 258.7 93.636 267.6 105.827C264.695 111.047 261.46 116.21 258.34 121.315C254.35 115.118 251.165 109.727 244.48 105.968C235.885 101.199 225.36 101.461 216.97 106.526C210.615 110.362 207.64 115.772 204.065 122.021C200.085 128.978 196.195 135.995 192.28 142.993L163.125 194.784L162.08 196.244L161.395 196.059C155.076 186.612 144.124 165.12 138.381 154.579C142.093 146.264 143.046 140.178 144.195 131.278C149.849 141.701 155.881 153.229 161.83 163.418C170.1 150.633 178.065 134.526 185.79 121.136C197.15 101.434 203.86 89.255 228.855 86.6935Z" fill="#FAFAFA"/>
<path d="M284.685 131.218C286.28 132.342 319.825 189.425 322.49 194.425L282.835 194.422L272.605 194.426C269.665 189.084 266.06 183.6 262.795 178.415C273.21 178.466 283.63 178.46 294.05 178.398C288.115 167.78 281.34 157.381 275.34 146.677C277.95 141.751 281.7 136.028 284.685 131.218Z" fill="#FAFAFA"/>
<path d="M17.4431 289V237.164H34.5861C38.1653 237.164 41.5223 237.843 44.6571 239.2C47.792 240.533 50.5442 242.397 52.9139 244.791C55.2836 247.161 57.1349 249.913 58.4678 253.048C59.8254 256.158 60.5042 259.503 60.5042 263.082C60.5042 266.661 59.8254 270.018 58.4678 273.153C57.1349 276.263 55.2836 279.015 52.9139 281.41C50.5442 283.779 47.792 285.643 44.6571 287.001C41.5223 288.334 38.1653 289 34.5861 289H17.4431ZM22.6267 283.816H34.5861C37.4494 283.816 40.1276 283.286 42.6207 282.224C45.1385 281.138 47.3477 279.645 49.2483 277.744C51.149 275.843 52.63 273.647 53.6914 271.154C54.7775 268.636 55.3206 265.945 55.3206 263.082C55.3206 260.219 54.7775 257.54 53.6914 255.047C52.63 252.53 51.1367 250.32 49.2113 248.42C47.3107 246.519 45.1138 245.038 42.6207 243.977C40.1276 242.89 37.4494 242.347 34.5861 242.347H22.6267V283.816ZM82.9818 289.963C79.5754 289.963 76.4653 289.086 73.6513 287.334C70.862 285.581 68.6281 283.236 66.9496 280.299C65.2958 277.337 64.4689 274.066 64.4689 270.487C64.4689 267.772 64.9502 265.242 65.9129 262.897C66.8756 260.527 68.1961 258.454 69.8747 256.676C71.5778 254.874 73.5526 253.467 75.7988 252.455C78.045 251.443 80.4394 250.937 82.9818 250.937C85.7217 250.937 88.2395 251.48 90.5351 252.567C92.8554 253.653 94.8424 255.171 96.4963 257.121C98.1748 259.071 99.4336 261.354 100.273 263.971C101.137 266.587 101.495 269.413 101.347 272.449H69.9487C70.2449 274.794 70.9854 276.893 72.1703 278.744C73.3798 280.595 74.9102 282.064 76.7615 283.15C78.6374 284.211 80.7109 284.754 82.9818 284.779C85.4502 284.779 87.6718 284.137 89.6465 282.854C91.6459 281.57 93.2503 279.805 94.4598 277.559L99.7175 278.781C98.2365 282.064 96.0026 284.754 93.0158 286.852C90.0291 288.926 86.6844 289.963 82.9818 289.963ZM69.8006 268.266H96.126C95.9532 265.97 95.2497 263.872 94.0155 261.971C92.806 260.046 91.2386 258.515 89.3132 257.38C87.3879 256.22 85.2774 255.64 82.9818 255.64C80.6862 255.64 78.5881 256.207 76.6874 257.343C74.7868 258.454 73.2317 259.972 72.0222 261.897C70.8126 263.798 70.0721 265.921 69.8006 268.266ZM123.986 289H117.396L103.881 251.863H109.398L120.691 282.928L131.984 251.863H137.501L123.986 289ZM143.635 251.974H148.818V289H143.635V251.974ZM146.264 245.495C145.424 245.495 144.709 245.223 144.116 244.68C143.548 244.112 143.265 243.409 143.265 242.57C143.265 241.73 143.548 241.039 144.116 240.496C144.709 239.928 145.424 239.644 146.264 239.644C147.078 239.644 147.769 239.928 148.337 240.496C148.93 241.039 149.226 241.73 149.226 242.57C149.226 243.409 148.942 244.112 148.374 244.68C147.806 245.223 147.103 245.495 146.264 245.495ZM186.81 251.974H191.994V290.37C191.994 292.74 191.476 294.961 190.439 297.035C189.427 299.108 188.045 300.922 186.292 302.477C184.564 304.057 182.59 305.291 180.368 306.18C178.146 307.069 175.838 307.513 173.444 307.513C170.877 307.513 168.396 306.921 166.002 305.736C163.608 304.576 161.522 303.02 159.745 301.07C157.992 299.12 156.745 296.961 156.005 294.591L160.781 292.406C161.25 294.258 162.127 295.924 163.41 297.405C164.718 298.911 166.249 300.095 168.001 300.959C169.779 301.848 171.593 302.292 173.444 302.292C175.147 302.292 176.789 301.971 178.369 301.33C179.973 300.713 181.405 299.861 182.664 298.775C183.947 297.689 184.959 296.418 185.7 294.961C186.44 293.53 186.81 291.999 186.81 290.37V282.187C185.527 284.508 183.787 286.384 181.59 287.815C179.418 289.247 176.888 289.963 174 289.963C171.408 289.963 168.964 289.457 166.668 288.445C164.397 287.433 162.398 286.038 160.67 284.261C158.942 282.459 157.585 280.385 156.597 278.04C155.635 275.695 155.153 273.178 155.153 270.487C155.153 267.797 155.635 265.279 156.597 262.934C157.585 260.564 158.942 258.491 160.67 256.713C162.398 254.912 164.397 253.505 166.668 252.492C168.964 251.48 171.408 250.974 174 250.974C176.888 250.974 179.418 251.69 181.59 253.122C183.787 254.529 185.527 256.405 186.81 258.75V251.974ZM174.037 284.927C176.604 284.927 178.813 284.261 180.664 282.928C182.54 281.595 183.984 279.83 184.996 277.633C186.008 275.436 186.514 273.054 186.514 270.487C186.514 267.846 185.996 265.439 184.959 263.267C183.947 261.07 182.503 259.318 180.627 258.009C178.751 256.676 176.554 256.01 174.037 256.01C171.519 256.01 169.223 256.664 167.15 257.972C165.101 259.256 163.472 260.996 162.262 263.193C161.053 265.39 160.448 267.821 160.448 270.487C160.448 273.153 161.065 275.584 162.299 277.781C163.534 279.953 165.175 281.694 167.224 283.002C169.297 284.285 171.568 284.927 174.037 284.927ZM233.196 266.081V289H228.012V267.118C228.012 265.094 227.519 263.255 226.531 261.601C225.544 259.947 224.223 258.626 222.569 257.639C220.916 256.652 219.077 256.158 217.053 256.158C215.053 256.158 213.214 256.652 211.536 257.639C209.882 258.626 208.561 259.947 207.574 261.601C206.587 263.255 206.093 265.094 206.093 267.118V289H200.909V251.974H206.093V257.084C207.401 255.208 209.104 253.714 211.202 252.604C213.301 251.493 215.584 250.937 218.052 250.937C220.842 250.937 223.384 251.616 225.68 252.974C227.975 254.331 229.802 256.158 231.159 258.454C232.517 260.749 233.196 263.292 233.196 266.081Z" fill="#00D594"/>
<path d="M241.443 289V237.164H272.064V246.198H250.477V256.713H268.509V265.748H250.477V289H241.443ZM275.018 289L293.975 262.934L275.24 237.164H286.385L299.566 255.306L312.784 237.164H323.929L305.194 262.934L324.151 289H312.933L299.566 270.635L286.237 289H275.018Z" fill="#FCBB00"/>
</g>
<defs>
<clipPath id="clip0_1192_5">
<rect width="336" height="315" fill="white"/>
</clipPath>
</defs>
</svg>
